<?xml version="1.0" encoding="utf-8"?>
<!-- Generator: Adobe Illustrator 24.3.0, SVG Export Plug-In . SVG Version: 6.00 Build 0)  -->
<svg version="1.2" id="レイヤー_1" xmlns="http://www.w3.org/2000/svg" xmlns:xlink="http://www.w3.org/1999/xlink" x="0px"
	 y="0px" width="298.75" height="44" viewBox="0 0 298.75 44" style="enable-background:new 0 0 512 512;" xml:space="preserve">
<g id="svgGroup" stroke-linecap="round" fill-rule="evenodd" font-size="9pt" stroke-width="0" fill="#09348b" style="fill:#09348b">
<path d="M 0 0 L 35 0 L 35 35 L 27.75 35 L 27.75 3.75 L 7.25 3.75 L 7.25 35 L 0 35 L 0 0 Z M 99.25 0 L 134.25 0 L 134.25 35 L 127 35 L 127 3.75 L 106.5 3.75 L 106.5 35 L 99.25 35 L 99.25 0 Z M 77 0 L 64.5 17.25 L 77.75 35 L 69.5 35 L 58 19.5 L 49.25 19.5 L 49.25 35 L 42 35 L 42 0 L 49.25 0 L 49.25 15.75 L 57.5 15.75 L 69 0 L 77 0 Z M 257.5 29.25 L 259.5 32.25 A 11.076 11.076 0 0 1 258.186 33.254 A 13.553 13.553 0 0 1 257.275 33.8 Q 256 34.5 254.525 34.975 Q 253.05 35.45 251.45 35.725 Q 249.85 36 248.25 36 Q 244.7 36 241.775 35.075 A 15.16 15.16 0 0 1 238.761 33.765 A 12.615 12.615 0 0 1 236.8 32.375 Q 234.75 30.6 233.625 28 A 13.408 13.408 0 0 1 232.687 24.642 A 17.88 17.88 0 0 1 232.5 22 A 17.886 17.886 0 0 1 232.769 18.831 A 13.858 13.858 0 0 1 233.575 16.025 A 12.64 12.64 0 0 1 235.448 12.825 A 11.421 11.421 0 0 1 236.575 11.625 A 12.809 12.809 0 0 1 240.659 9.106 A 14.832 14.832 0 0 1 241.15 8.925 A 16.564 16.564 0 0 1 245.006 8.095 A 20.44 20.44 0 0 1 247 8 A 17.792 17.792 0 0 1 251.633 8.591 A 16.337 16.337 0 0 1 252.65 8.9 A 13.684 13.684 0 0 1 256.231 10.714 A 12.551 12.551 0 0 1 257.25 11.525 Q 259.2 13.25 260.35 15.7 A 12.098 12.098 0 0 1 261.388 19.376 A 15.216 15.216 0 0 1 261.5 21.25 L 261.5 24.75 L 240.15 24.75 A 14.055 14.055 0 0 0 240.671 27.061 Q 241.066 28.283 241.673 29.207 A 6.281 6.281 0 0 0 243.025 30.7 A 8.198 8.198 0 0 0 246.684 32.32 A 11.345 11.345 0 0 0 248.75 32.5 A 12.475 12.475 0 0 0 252.38 31.981 A 11.529 11.529 0 0 0 253.325 31.65 Q 255.45 30.8 257.5 29.25 Z M 152.75 18.5 L 159.75 18.5 A 10.943 10.943 0 0 0 159.585 16.53 Q 159.389 15.463 158.962 14.63 A 4.979 4.979 0 0 0 157.875 13.2 A 6.439 6.439 0 0 0 154.64 11.642 A 9.072 9.072 0 0 0 153 11.5 Q 150.75 11.5 148.6 12.175 A 15.296 15.296 0 0 0 145.799 13.359 A 13.404 13.404 0 0 0 144.75 14 L 143 11 Q 144.1 10.25 145.425 9.7 Q 146.75 9.15 148.15 8.775 Q 149.55 8.4 150.925 8.2 Q 152.3 8 153.5 8 Q 156.593 8 158.985 8.701 A 14.159 14.159 0 0 1 159.15 8.75 A 13.389 13.389 0 0 1 161.533 9.726 A 10.639 10.639 0 0 1 163.3 10.9 Q 165 12.3 165.875 14.225 Q 166.75 16.15 166.75 18.5 L 166.75 35 L 152.75 35 Q 145.95 35 142.725 32.95 A 6.609 6.609 0 0 1 139.604 28.174 A 9.373 9.373 0 0 1 139.5 26.75 A 8.432 8.432 0 0 1 139.881 24.145 A 6.571 6.571 0 0 1 142.725 20.55 A 10.565 10.565 0 0 1 145.295 19.404 Q 147.821 18.627 151.511 18.518 A 41.879 41.879 0 0 1 152.75 18.5 Z M 173.5 9 L 186.75 9 A 22.926 22.926 0 0 1 190.337 9.269 A 18.247 18.247 0 0 1 193.025 9.9 Q 195.85 10.8 197.85 12.5 Q 199.85 14.2 200.925 16.6 A 12.273 12.273 0 0 1 201.895 20.184 A 15.31 15.31 0 0 1 202 22 A 14.408 14.408 0 0 1 201.678 25.102 A 11.818 11.818 0 0 1 200.925 27.4 Q 199.85 29.8 197.85 31.5 A 13.122 13.122 0 0 1 194.549 33.53 A 16.12 16.12 0 0 1 193.025 34.1 A 18.916 18.916 0 0 1 189.25 34.873 A 23.947 23.947 0 0 1 186.75 35 L 180.5 35 L 180.5 44 L 173.5 44 L 173.5 9 Z M 267.25 9 L 280.5 9 A 22.926 22.926 0 0 1 284.087 9.269 A 18.247 18.247 0 0 1 286.775 9.9 Q 289.6 10.8 291.6 12.5 Q 293.6 14.2 294.675 16.6 A 12.273 12.273 0 0 1 295.645 20.184 A 15.31 15.31 0 0 1 295.75 22 A 14.408 14.408 0 0 1 295.428 25.102 A 11.818 11.818 0 0 1 294.675 27.4 Q 293.6 29.8 291.6 31.5 A 13.122 13.122 0 0 1 288.299 33.53 A 16.12 16.12 0 0 1 286.775 34.1 A 18.916 18.916 0 0 1 283 34.873 A 23.947 23.947 0 0 1 280.5 35 L 274.25 35 L 274.25 44 L 267.25 44 L 267.25 9 Z M 231.25 9 L 231.25 12.5 L 220.75 12.5 L 220.75 35 L 213.75 35 L 213.75 12.5 L 203.25 12.5 L 203.25 9 L 231.25 9 Z M 186.75 12.5 L 180.5 12.5 L 180.5 31.5 L 186.75 31.5 Q 188.45 31.5 189.875 30.975 Q 191.3 30.45 192.325 29.3 A 7.033 7.033 0 0 0 193.33 27.812 A 9.676 9.676 0 0 0 193.925 26.35 Q 194.409 24.835 194.486 22.788 A 21.085 21.085 0 0 0 194.5 22 A 18.896 18.896 0 0 0 194.407 20.069 Q 194.269 18.726 193.925 17.65 Q 193.35 15.85 192.325 14.7 Q 191.3 13.55 189.875 13.025 A 8.571 8.571 0 0 0 187.634 12.537 A 10.346 10.346 0 0 0 186.75 12.5 Z M 280.5 12.5 L 274.25 12.5 L 274.25 31.5 L 280.5 31.5 Q 282.2 31.5 283.625 30.975 Q 285.05 30.45 286.075 29.3 A 7.033 7.033 0 0 0 287.08 27.812 A 9.676 9.676 0 0 0 287.675 26.35 Q 288.159 24.835 288.236 22.788 A 21.085 21.085 0 0 0 288.25 22 A 18.896 18.896 0 0 0 288.157 20.069 Q 288.019 18.726 287.675 17.65 Q 287.1 15.85 286.075 14.7 Q 285.05 13.55 283.625 13.025 A 8.571 8.571 0 0 0 281.384 12.537 A 10.346 10.346 0 0 0 280.5 12.5 Z M 240 21.25 L 254 21.25 A 18.982 18.982 0 0 0 253.893 19.181 Q 253.747 17.848 253.4 16.75 A 11.913 11.913 0 0 0 252.806 15.223 Q 252.433 14.437 251.969 13.812 A 7.018 7.018 0 0 0 251.825 13.625 A 6.579 6.579 0 0 0 250.633 12.453 A 5.569 5.569 0 0 0 249.575 11.825 A 6.411 6.411 0 0 0 247.729 11.295 A 5.87 5.87 0 0 0 247 11.25 A 6.725 6.725 0 0 0 244.736 11.627 A 6.356 6.356 0 0 0 244.3 11.8 A 5.381 5.381 0 0 0 242.514 13.089 A 6.603 6.603 0 0 0 242.125 13.55 Q 241.2 14.75 240.625 16.65 Q 240.05 18.55 240 21.25 Z M 152.75 31.5 L 159.75 31.5 L 159.75 22 L 152.75 22 Q 147 22 147 26.75 A 5.556 5.556 0 0 0 147.348 28.8 Q 148.304 31.22 151.886 31.471 A 12.371 12.371 0 0 0 152.75 31.5 Z" vector-effect="non-scaling-stroke"/>
</g></svg>
